<mxfile host="app.diagrams.net" modified="2023-04-18T06:34:44.140Z" agent="Mozilla/5.0 (X11; Linux x86_64; rv:109.0) Gecko/20100101 Firefox/112.0" etag="Gs1457eKOhJ6W7PveRZd" version="21.1.8" type="device">
  <diagram name="Page-1" id="13e1069c-82ec-6db2-03f1-153e76fe0fe0">
    <mxGraphModel dx="2534" dy="790" grid="1" gridSize="10" guides="1" tooltips="1" connect="1" arrows="1" fold="1" page="1" pageScale="1" pageWidth="1100" pageHeight="850" background="none" math="0" shadow="0">
      <root>
        <mxCell id="0" />
        <mxCell id="1" parent="0" />
        <mxCell id="7baba1c4bc27f4b0-2" value="SettlerActions" style="shape=umlLifeline;perimeter=lifelinePerimeter;whiteSpace=wrap;html=1;container=1;collapsible=0;recursiveResize=0;outlineConnect=0;rounded=1;shadow=0;comic=0;labelBackgroundColor=none;strokeWidth=1;fontFamily=Verdana;fontSize=12;align=center;" parent="1" vertex="1">
          <mxGeometry x="276" y="80" width="100" height="750" as="geometry" />
        </mxCell>
        <mxCell id="7baba1c4bc27f4b0-10" value="" style="html=1;points=[];perimeter=orthogonalPerimeter;rounded=0;shadow=0;comic=0;labelBackgroundColor=none;strokeWidth=1;fontFamily=Verdana;fontSize=12;align=center;" parent="7baba1c4bc27f4b0-2" vertex="1">
          <mxGeometry x="45" y="254" width="10" height="266" as="geometry" />
        </mxCell>
        <mxCell id="7baba1c4bc27f4b0-3" value="PoolCommons" style="shape=umlLifeline;perimeter=lifelinePerimeter;whiteSpace=wrap;html=1;container=1;collapsible=0;recursiveResize=0;outlineConnect=0;rounded=1;shadow=0;comic=0;labelBackgroundColor=none;strokeWidth=1;fontFamily=Verdana;fontSize=12;align=center;" parent="1" vertex="1">
          <mxGeometry x="450" y="79" width="100" height="750" as="geometry" />
        </mxCell>
        <mxCell id="4Fi33i3VNf01kXt7bkc9-4" value="" style="html=1;points=[];perimeter=orthogonalPerimeter;rounded=0;shadow=0;comic=0;labelBackgroundColor=none;strokeWidth=1;fontFamily=Verdana;fontSize=12;align=center;" parent="7baba1c4bc27f4b0-3" vertex="1">
          <mxGeometry x="45" y="60" width="10" height="120" as="geometry" />
        </mxCell>
        <mxCell id="4Fi33i3VNf01kXt7bkc9-36" value="" style="html=1;points=[];perimeter=orthogonalPerimeter;rounded=0;shadow=0;comic=0;labelBackgroundColor=none;strokeWidth=1;fontFamily=Verdana;fontSize=12;align=center;" parent="7baba1c4bc27f4b0-3" vertex="1">
          <mxGeometry x="45" y="564" width="10" height="120" as="geometry" />
        </mxCell>
        <mxCell id="7baba1c4bc27f4b0-4" value="&lt;font&gt;Deposits&lt;/font&gt;" style="shape=umlLifeline;perimeter=lifelinePerimeter;whiteSpace=wrap;html=1;container=1;collapsible=0;recursiveResize=0;outlineConnect=0;rounded=1;shadow=0;comic=0;labelBackgroundColor=none;strokeWidth=1;fontFamily=Verdana;fontSize=12;align=center;" parent="1" vertex="1">
          <mxGeometry x="620" y="80" width="100" height="750" as="geometry" />
        </mxCell>
        <mxCell id="4Fi33i3VNf01kXt7bkc9-14" value="" style="html=1;points=[];perimeter=orthogonalPerimeter;rounded=0;shadow=0;comic=0;labelBackgroundColor=none;strokeWidth=1;fontFamily=Verdana;fontSize=12;align=center;" parent="7baba1c4bc27f4b0-4" vertex="1">
          <mxGeometry x="45" y="80" width="10" height="60" as="geometry" />
        </mxCell>
        <mxCell id="OZIXumOx-P3Wxb6WJyRX-15" value="" style="html=1;points=[];perimeter=orthogonalPerimeter;rounded=0;shadow=0;comic=0;labelBackgroundColor=none;strokeWidth=1;fontFamily=Verdana;fontSize=12;align=center;" parent="7baba1c4bc27f4b0-4" vertex="1">
          <mxGeometry x="45" y="297" width="10" height="38" as="geometry" />
        </mxCell>
        <mxCell id="7baba1c4bc27f4b0-8" value="Pool" style="shape=umlLifeline;perimeter=lifelinePerimeter;whiteSpace=wrap;html=1;container=1;collapsible=0;recursiveResize=0;outlineConnect=0;rounded=1;shadow=0;comic=0;labelBackgroundColor=none;strokeWidth=1;fontFamily=Verdana;fontSize=12;align=center;" parent="1" vertex="1">
          <mxGeometry x="100" y="80" width="100" height="750" as="geometry" />
        </mxCell>
        <mxCell id="7baba1c4bc27f4b0-9" value="" style="html=1;points=[];perimeter=orthogonalPerimeter;rounded=0;shadow=0;comic=0;labelBackgroundColor=none;strokeWidth=1;fontFamily=Verdana;fontSize=12;align=center;" parent="7baba1c4bc27f4b0-8" vertex="1">
          <mxGeometry x="45" y="60" width="10" height="620" as="geometry" />
        </mxCell>
        <mxCell id="7baba1c4bc27f4b0-41" value="&lt;font style=&quot;font-size: 10px;&quot; face=&quot;Tahoma&quot;&gt;External library&lt;br&gt;&lt;/font&gt;" style="shape=note;whiteSpace=wrap;html=1;size=14;verticalAlign=top;align=left;spacingTop=-6;rounded=0;shadow=0;comic=0;labelBackgroundColor=none;strokeWidth=1;fontFamily=Verdana;fontSize=12" parent="1" vertex="1">
          <mxGeometry x="276" y="30" width="100" height="35" as="geometry" />
        </mxCell>
        <mxCell id="7baba1c4bc27f4b0-42" value="&lt;font style=&quot;font-size: 10px;&quot; face=&quot;Tahoma&quot;&gt;External library&lt;br&gt;&lt;/font&gt;" style="shape=note;whiteSpace=wrap;html=1;size=14;verticalAlign=top;align=left;spacingTop=-6;rounded=0;shadow=0;comic=0;labelBackgroundColor=none;strokeWidth=1;fontFamily=Verdana;fontSize=12" parent="1" vertex="1">
          <mxGeometry x="450" y="30" width="100" height="35" as="geometry" />
        </mxCell>
        <mxCell id="7baba1c4bc27f4b0-43" value="&lt;font style=&quot;font-size: 10px;&quot; face=&quot;Tahoma&quot;&gt;Internal library&lt;br&gt;&lt;/font&gt;" style="shape=note;whiteSpace=wrap;html=1;size=14;verticalAlign=top;align=left;spacingTop=-6;rounded=0;shadow=0;comic=0;labelBackgroundColor=none;strokeWidth=1;fontFamily=Verdana;fontSize=12" parent="1" vertex="1">
          <mxGeometry x="621" y="30" width="100" height="35" as="geometry" />
        </mxCell>
        <mxCell id="4Fi33i3VNf01kXt7bkc9-8" style="edgeStyle=orthogonalEdgeStyle;rounded=0;orthogonalLoop=1;jettySize=auto;html=1;fontFamily=Tahoma;fontSize=10;entryX=0;entryY=0.092;entryDx=0;entryDy=0;entryPerimeter=0;" parent="1" source="7baba1c4bc27f4b0-9" target="4Fi33i3VNf01kXt7bkc9-4" edge="1">
          <mxGeometry relative="1" as="geometry">
            <mxPoint x="490" y="150" as="targetPoint" />
            <Array as="points">
              <mxPoint x="210" y="151" />
              <mxPoint x="210" y="151" />
            </Array>
          </mxGeometry>
        </mxCell>
        <mxCell id="4Fi33i3VNf01kXt7bkc9-11" value="&lt;div&gt;accrueInterest&lt;/div&gt;&lt;div&gt;(thresholdPrice, timeElapsed)&lt;/div&gt;" style="edgeLabel;html=1;align=center;verticalAlign=middle;resizable=0;points=[];fontSize=10;fontFamily=Tahoma;" parent="4Fi33i3VNf01kXt7bkc9-8" vertex="1" connectable="0">
          <mxGeometry x="-0.0824" relative="1" as="geometry">
            <mxPoint x="8" as="offset" />
          </mxGeometry>
        </mxCell>
        <mxCell id="4Fi33i3VNf01kXt7bkc9-10" style="edgeStyle=orthogonalEdgeStyle;rounded=0;orthogonalLoop=1;jettySize=auto;html=1;fontFamily=Tahoma;fontSize=10;dashed=1;endArrow=open;endFill=0;" parent="1" edge="1">
          <mxGeometry relative="1" as="geometry">
            <mxPoint x="492" y="253" as="sourcePoint" />
            <mxPoint x="157" y="253" as="targetPoint" />
            <Array as="points">
              <mxPoint x="207" y="253" />
              <mxPoint x="207" y="253" />
            </Array>
          </mxGeometry>
        </mxCell>
        <mxCell id="4Fi33i3VNf01kXt7bkc9-13" value="(newInflator, accruedInterest)" style="edgeLabel;html=1;align=center;verticalAlign=middle;resizable=0;points=[];fontSize=10;fontFamily=Tahoma;" parent="4Fi33i3VNf01kXt7bkc9-10" vertex="1" connectable="0">
          <mxGeometry x="0.1284" y="-1" relative="1" as="geometry">
            <mxPoint x="28" as="offset" />
          </mxGeometry>
        </mxCell>
        <mxCell id="4Fi33i3VNf01kXt7bkc9-17" style="edgeStyle=orthogonalEdgeStyle;rounded=0;orthogonalLoop=1;jettySize=auto;html=1;fontFamily=Tahoma;fontSize=10;endArrow=classic;endFill=1;" parent="1" edge="1">
          <mxGeometry relative="1" as="geometry">
            <mxPoint x="505" y="175" as="sourcePoint" />
            <mxPoint x="665" y="175" as="targetPoint" />
            <Array as="points">
              <mxPoint x="550" y="175" />
              <mxPoint x="550" y="175" />
            </Array>
          </mxGeometry>
        </mxCell>
        <mxCell id="4Fi33i3VNf01kXt7bkc9-18" value="mult()" style="edgeLabel;html=1;align=center;verticalAlign=middle;resizable=0;points=[];fontSize=10;fontFamily=Tahoma;" parent="4Fi33i3VNf01kXt7bkc9-17" vertex="1" connectable="0">
          <mxGeometry x="-0.125" y="-3" relative="1" as="geometry">
            <mxPoint x="8" y="-4" as="offset" />
          </mxGeometry>
        </mxCell>
        <mxCell id="4Fi33i3VNf01kXt7bkc9-20" value="&lt;div&gt;Scale Fenwick Tree with the new interest accrued&lt;/div&gt;&lt;div&gt;&lt;br&gt;&lt;/div&gt;&lt;div&gt;update scaling array state&lt;br&gt;&lt;/div&gt;" style="shape=note;whiteSpace=wrap;html=1;size=14;verticalAlign=top;align=left;spacingTop=-6;rounded=0;shadow=0;comic=0;labelBackgroundColor=none;strokeWidth=1;fontFamily=Verdana;fontSize=10;" parent="1" vertex="1">
          <mxGeometry x="682" y="163" width="145" height="50" as="geometry" />
        </mxCell>
        <mxCell id="4Fi33i3VNf01kXt7bkc9-22" style="edgeStyle=orthogonalEdgeStyle;rounded=0;orthogonalLoop=1;jettySize=auto;html=1;fontFamily=Verdana;fontSize=10;endArrow=open;endFill=0;exitX=-0.1;exitY=0.917;exitDx=0;exitDy=0;exitPerimeter=0;dashed=1;" parent="1" source="4Fi33i3VNf01kXt7bkc9-14" target="4Fi33i3VNf01kXt7bkc9-4" edge="1">
          <mxGeometry relative="1" as="geometry">
            <mxPoint x="510" y="215" as="targetPoint" />
            <Array as="points">
              <mxPoint x="540" y="215" />
              <mxPoint x="540" y="215" />
            </Array>
          </mxGeometry>
        </mxCell>
        <mxCell id="4Fi33i3VNf01kXt7bkc9-23" style="edgeStyle=orthogonalEdgeStyle;rounded=0;orthogonalLoop=1;jettySize=auto;html=1;fontFamily=Verdana;fontSize=10;endArrow=classic;endFill=1;" parent="1" edge="1">
          <mxGeometry relative="1" as="geometry">
            <mxPoint x="320" y="347" as="targetPoint" />
            <Array as="points">
              <mxPoint x="190" y="347" />
              <mxPoint x="190" y="347" />
            </Array>
            <mxPoint x="155" y="347" as="sourcePoint" />
          </mxGeometry>
        </mxCell>
        <mxCell id="4Fi33i3VNf01kXt7bkc9-24" value="&lt;div&gt;settlePoolDebt&lt;/div&gt;&lt;div&gt;(SettleParams)&lt;br&gt;&lt;/div&gt;" style="edgeLabel;html=1;align=center;verticalAlign=middle;resizable=0;points=[];fontSize=10;fontFamily=Verdana;" parent="4Fi33i3VNf01kXt7bkc9-23" vertex="1" connectable="0">
          <mxGeometry x="-0.1515" y="-2" relative="1" as="geometry">
            <mxPoint x="9" y="-1" as="offset" />
          </mxGeometry>
        </mxCell>
        <mxCell id="4Fi33i3VNf01kXt7bkc9-35" style="edgeStyle=orthogonalEdgeStyle;rounded=0;orthogonalLoop=1;jettySize=auto;html=1;dashed=1;fontFamily=Verdana;fontSize=10;endArrow=open;endFill=0;" parent="1" edge="1">
          <mxGeometry relative="1" as="geometry">
            <mxPoint x="320" y="595" as="sourcePoint" />
            <mxPoint x="155" y="595" as="targetPoint" />
          </mxGeometry>
        </mxCell>
        <mxCell id="4Fi33i3VNf01kXt7bkc9-37" style="edgeStyle=orthogonalEdgeStyle;rounded=0;orthogonalLoop=1;jettySize=auto;html=1;entryX=0.1;entryY=0.05;entryDx=0;entryDy=0;entryPerimeter=0;fontFamily=Verdana;fontSize=10;endArrow=classic;endFill=1;" parent="1" target="4Fi33i3VNf01kXt7bkc9-36" edge="1">
          <mxGeometry relative="1" as="geometry">
            <mxPoint x="155" y="650" as="sourcePoint" />
            <Array as="points">
              <mxPoint x="240" y="650" />
              <mxPoint x="240" y="650" />
            </Array>
          </mxGeometry>
        </mxCell>
        <mxCell id="4Fi33i3VNf01kXt7bkc9-39" value="&lt;div&gt;updateInterestState&lt;/div&gt;&lt;div&gt;(PoolState, LUP)&lt;br&gt;&lt;/div&gt;" style="edgeLabel;html=1;align=center;verticalAlign=middle;resizable=0;points=[];fontSize=10;fontFamily=Verdana;" parent="4Fi33i3VNf01kXt7bkc9-37" vertex="1" connectable="0">
          <mxGeometry x="0.3959" y="-1" relative="1" as="geometry">
            <mxPoint x="-73" as="offset" />
          </mxGeometry>
        </mxCell>
        <mxCell id="4Fi33i3VNf01kXt7bkc9-38" style="edgeStyle=orthogonalEdgeStyle;rounded=0;orthogonalLoop=1;jettySize=auto;html=1;dashed=1;fontFamily=Verdana;fontSize=10;endArrow=open;endFill=0;exitX=0.1;exitY=0.917;exitDx=0;exitDy=0;exitPerimeter=0;" parent="1" source="4Fi33i3VNf01kXt7bkc9-36" edge="1">
          <mxGeometry relative="1" as="geometry">
            <mxPoint x="490" y="754" as="sourcePoint" />
            <mxPoint x="155" y="754" as="targetPoint" />
            <Array as="points" />
          </mxGeometry>
        </mxCell>
        <mxCell id="4Fi33i3VNf01kXt7bkc9-40" value="&lt;div&gt;update EMAs state&lt;/div&gt;&lt;div&gt;&lt;br&gt;&lt;/div&gt;&lt;div&gt;update interestRate and interestRateUpdate time&lt;br&gt;&lt;/div&gt;&lt;div&gt;&lt;br&gt;&lt;/div&gt;&lt;div&gt;emit UpdateInterestRate()&lt;br&gt;&lt;/div&gt;" style="shape=note;whiteSpace=wrap;html=1;size=14;verticalAlign=top;align=left;spacingTop=-6;rounded=0;shadow=0;comic=0;labelBackgroundColor=none;strokeWidth=1;fontFamily=Verdana;fontSize=10;" parent="1" vertex="1">
          <mxGeometry x="510" y="660" width="145" height="90" as="geometry" />
        </mxCell>
        <mxCell id="4Fi33i3VNf01kXt7bkc9-41" value="&lt;div&gt;update inflator&lt;/div&gt;&lt;div&gt;update inflatorUpdate time&lt;br&gt;&lt;/div&gt;" style="shape=note;whiteSpace=wrap;html=1;size=14;verticalAlign=top;align=left;spacingTop=-6;rounded=0;shadow=0;comic=0;labelBackgroundColor=none;strokeWidth=1;fontFamily=Verdana;fontSize=10;" parent="1" vertex="1">
          <mxGeometry x="165" y="784" width="145" height="30" as="geometry" />
        </mxCell>
        <mxCell id="4Fi33i3VNf01kXt7bkc9-49" value="Loans" style="shape=umlLifeline;perimeter=lifelinePerimeter;whiteSpace=wrap;html=1;container=1;collapsible=0;recursiveResize=0;outlineConnect=0;rounded=1;shadow=0;comic=0;labelBackgroundColor=none;strokeWidth=1;fontFamily=Verdana;fontSize=12;align=center;" parent="1" vertex="1">
          <mxGeometry x="820" y="77" width="100" height="750" as="geometry" />
        </mxCell>
        <mxCell id="4Fi33i3VNf01kXt7bkc9-51" value="" style="html=1;points=[];perimeter=orthogonalPerimeter;rounded=0;shadow=0;comic=0;labelBackgroundColor=none;strokeWidth=1;fontFamily=Verdana;fontSize=12;align=center;" parent="4Fi33i3VNf01kXt7bkc9-49" vertex="1">
          <mxGeometry x="45" y="434" width="10" height="38" as="geometry" />
        </mxCell>
        <mxCell id="4Fi33i3VNf01kXt7bkc9-52" value="&lt;font style=&quot;font-size: 10px;&quot; face=&quot;Tahoma&quot;&gt;Internal library&lt;br&gt;&lt;/font&gt;" style="shape=note;whiteSpace=wrap;html=1;size=14;verticalAlign=top;align=left;spacingTop=-6;rounded=0;shadow=0;comic=0;labelBackgroundColor=none;strokeWidth=1;fontFamily=Verdana;fontSize=12" parent="1" vertex="1">
          <mxGeometry x="821" y="30" width="100" height="35" as="geometry" />
        </mxCell>
        <mxCell id="4Fi33i3VNf01kXt7bkc9-54" style="edgeStyle=orthogonalEdgeStyle;rounded=0;orthogonalLoop=1;jettySize=auto;html=1;fontFamily=Verdana;fontSize=10;endArrow=open;endFill=0;exitX=-0.1;exitY=0.917;exitDx=0;exitDy=0;exitPerimeter=0;dashed=1;entryX=0.9;entryY=0.651;entryDx=0;entryDy=0;entryPerimeter=0;" parent="1" edge="1">
          <mxGeometry relative="1" as="geometry">
            <mxPoint x="861" y="545.02" as="sourcePoint" />
            <mxPoint x="332" y="546.0329999999999" as="targetPoint" />
            <Array as="points">
              <mxPoint x="336" y="546" />
            </Array>
          </mxGeometry>
        </mxCell>
        <mxCell id="4Fi33i3VNf01kXt7bkc9-55" value="insert, update or remove loan" style="shape=note;whiteSpace=wrap;html=1;size=14;verticalAlign=top;align=left;spacingTop=-6;rounded=0;shadow=0;comic=0;labelBackgroundColor=none;strokeWidth=1;fontFamily=Verdana;fontSize=10;" parent="1" vertex="1">
          <mxGeometry x="880" y="511" width="100" height="41" as="geometry" />
        </mxCell>
        <mxCell id="OZIXumOx-P3Wxb6WJyRX-2" value="&lt;div&gt;borrower collateral&lt;/div&gt;&lt;div&gt;borrower debt&lt;/div&gt;&lt;div&gt;settled collateral&lt;/div&gt;&lt;div&gt;settled debt&lt;br&gt;&lt;/div&gt;" style="edgeLabel;html=1;align=center;verticalAlign=middle;resizable=0;points=[];fontSize=10;fontFamily=Verdana;" parent="1" vertex="1" connectable="0">
          <mxGeometry x="237.5" y="590" as="geometry">
            <mxPoint x="-5" y="-4" as="offset" />
          </mxGeometry>
        </mxCell>
        <mxCell id="OZIXumOx-P3Wxb6WJyRX-3" value="&lt;div&gt;revert:&lt;/div&gt;NoAuction()&lt;div&gt;AuctionNotClearable()&lt;/div&gt;" style="shape=note;whiteSpace=wrap;html=1;size=14;verticalAlign=top;align=left;spacingTop=-6;rounded=0;shadow=0;comic=0;labelBackgroundColor=none;strokeWidth=1;fontFamily=Verdana;fontSize=10;" parent="1" vertex="1">
          <mxGeometry x="335" y="328" width="145" height="50" as="geometry" />
        </mxCell>
        <mxCell id="OZIXumOx-P3Wxb6WJyRX-4" style="edgeStyle=orthogonalEdgeStyle;rounded=0;orthogonalLoop=1;jettySize=auto;html=1;entryX=0;entryY=0.158;entryDx=0;entryDy=0;entryPerimeter=0;fontFamily=Tahoma;fontSize=12;fontColor=#666666;endArrow=classic;endFill=1;" parent="1" edge="1">
          <mxGeometry relative="1" as="geometry">
            <mxPoint x="331" y="517" as="sourcePoint" />
            <mxPoint x="865" y="517.0039999999999" as="targetPoint" />
            <Array as="points">
              <mxPoint x="470" y="517" />
              <mxPoint x="470" y="517" />
            </Array>
          </mxGeometry>
        </mxCell>
        <mxCell id="OZIXumOx-P3Wxb6WJyRX-6" value="update()" style="edgeLabel;html=1;align=center;verticalAlign=middle;resizable=0;points=[];fontSize=10;fontFamily=Tahoma;" parent="1" vertex="1" connectable="0">
          <mxGeometry x="593" y="314" as="geometry">
            <mxPoint x="2" y="203" as="offset" />
          </mxGeometry>
        </mxCell>
        <mxCell id="OZIXumOx-P3Wxb6WJyRX-14" value="&lt;div&gt;update borrower&lt;br&gt;&lt;/div&gt;&lt;div&gt;emit Settle()&lt;/div&gt;&lt;div&gt;settleAuction&lt;br&gt;&lt;/div&gt;" style="shape=note;whiteSpace=wrap;html=1;size=14;verticalAlign=top;align=left;spacingTop=-6;rounded=0;shadow=0;comic=0;labelBackgroundColor=none;strokeWidth=1;fontFamily=Verdana;fontSize=10;" parent="1" vertex="1">
          <mxGeometry x="335" y="552" width="145" height="38" as="geometry" />
        </mxCell>
        <mxCell id="OZIXumOx-P3Wxb6WJyRX-16" style="edgeStyle=orthogonalEdgeStyle;rounded=0;orthogonalLoop=1;jettySize=auto;html=1;fontFamily=Tahoma;fontSize=12;fontColor=#666666;endArrow=classic;endFill=1;" parent="1" edge="1">
          <mxGeometry relative="1" as="geometry">
            <mxPoint x="331" y="386" as="sourcePoint" />
            <mxPoint x="660" y="386" as="targetPoint" />
            <Array as="points">
              <mxPoint x="470" y="386" />
              <mxPoint x="470" y="386" />
            </Array>
          </mxGeometry>
        </mxCell>
        <mxCell id="OZIXumOx-P3Wxb6WJyRX-17" value="unscaledRemove()" style="edgeLabel;html=1;align=center;verticalAlign=middle;resizable=0;points=[];fontSize=10;fontFamily=Tahoma;" parent="1" vertex="1" connectable="0">
          <mxGeometry x="500" y="183" as="geometry">
            <mxPoint x="2" y="203" as="offset" />
          </mxGeometry>
        </mxCell>
        <mxCell id="OZIXumOx-P3Wxb6WJyRX-18" style="edgeStyle=orthogonalEdgeStyle;rounded=0;orthogonalLoop=1;jettySize=auto;html=1;fontFamily=Verdana;fontSize=10;endArrow=open;endFill=0;exitX=-0.2;exitY=0.921;exitDx=0;exitDy=0;exitPerimeter=0;dashed=1;entryX=0.9;entryY=0.651;entryDx=0;entryDy=0;entryPerimeter=0;" parent="1" source="OZIXumOx-P3Wxb6WJyRX-15" edge="1">
          <mxGeometry relative="1" as="geometry">
            <mxPoint x="860" y="412.02" as="sourcePoint" />
            <mxPoint x="331" y="413.0329999999999" as="targetPoint" />
            <Array as="points">
              <mxPoint x="335" y="412" />
              <mxPoint x="335" y="413" />
            </Array>
          </mxGeometry>
        </mxCell>
        <mxCell id="OZIXumOx-P3Wxb6WJyRX-19" value="&lt;div&gt;remove amount from Fenwick Tree&lt;/div&gt;&lt;div&gt;&lt;br&gt;&lt;/div&gt;&lt;div&gt;update values array&lt;br&gt;&lt;/div&gt;" style="shape=note;whiteSpace=wrap;html=1;size=14;verticalAlign=top;align=left;spacingTop=-6;rounded=0;shadow=0;comic=0;labelBackgroundColor=none;strokeWidth=1;fontFamily=Verdana;fontSize=10;" parent="1" vertex="1">
          <mxGeometry x="682" y="369" width="170" height="58" as="geometry" />
        </mxCell>
        <mxCell id="OZIXumOx-P3Wxb6WJyRX-23" value="Buckets" style="shape=umlLifeline;perimeter=lifelinePerimeter;whiteSpace=wrap;html=1;container=1;collapsible=0;recursiveResize=0;outlineConnect=0;rounded=1;shadow=0;comic=0;labelBackgroundColor=none;strokeWidth=1;fontFamily=Verdana;fontSize=12;align=center;" parent="1" vertex="1">
          <mxGeometry x="958" y="76" width="100" height="750" as="geometry" />
        </mxCell>
        <mxCell id="OZIXumOx-P3Wxb6WJyRX-24" value="" style="html=1;points=[];perimeter=orthogonalPerimeter;rounded=0;shadow=0;comic=0;labelBackgroundColor=none;strokeWidth=1;fontFamily=Verdana;fontSize=12;align=center;" parent="OZIXumOx-P3Wxb6WJyRX-23" vertex="1">
          <mxGeometry x="45" y="371" width="10" height="38" as="geometry" />
        </mxCell>
        <mxCell id="OZIXumOx-P3Wxb6WJyRX-25" value="&lt;font style=&quot;font-size: 10px;&quot; face=&quot;Tahoma&quot;&gt;Internal library&lt;br&gt;&lt;/font&gt;" style="shape=note;whiteSpace=wrap;html=1;size=14;verticalAlign=top;align=left;spacingTop=-6;rounded=0;shadow=0;comic=0;labelBackgroundColor=none;strokeWidth=1;fontFamily=Verdana;fontSize=12" parent="1" vertex="1">
          <mxGeometry x="959" y="29" width="100" height="35" as="geometry" />
        </mxCell>
        <mxCell id="OZIXumOx-P3Wxb6WJyRX-26" style="edgeStyle=orthogonalEdgeStyle;rounded=0;orthogonalLoop=1;jettySize=auto;html=1;entryX=0;entryY=0.158;entryDx=0;entryDy=0;entryPerimeter=0;fontFamily=Tahoma;fontSize=12;fontColor=#666666;endArrow=classic;endFill=1;" parent="1" edge="1">
          <mxGeometry relative="1" as="geometry">
            <mxPoint x="330" y="455" as="sourcePoint" />
            <mxPoint x="1002" y="455.0039999999999" as="targetPoint" />
            <Array as="points" />
          </mxGeometry>
        </mxCell>
        <mxCell id="OZIXumOx-P3Wxb6WJyRX-27" value="addCollateral()" style="edgeLabel;html=1;align=center;verticalAlign=middle;resizable=0;points=[];fontSize=10;fontFamily=Tahoma;" parent="1" vertex="1" connectable="0">
          <mxGeometry x="580" y="250" as="geometry">
            <mxPoint x="2" y="203" as="offset" />
          </mxGeometry>
        </mxCell>
        <mxCell id="OZIXumOx-P3Wxb6WJyRX-30" style="edgeStyle=orthogonalEdgeStyle;rounded=0;orthogonalLoop=1;jettySize=auto;html=1;fontFamily=Verdana;fontSize=10;endArrow=open;endFill=0;dashed=1;entryX=0.9;entryY=0.651;entryDx=0;entryDy=0;entryPerimeter=0;" parent="1" edge="1">
          <mxGeometry relative="1" as="geometry">
            <mxPoint x="1000" y="483" as="sourcePoint" />
            <mxPoint x="332" y="483.0329999999999" as="targetPoint" />
            <Array as="points">
              <mxPoint x="820" y="483" />
              <mxPoint x="820" y="483" />
            </Array>
          </mxGeometry>
        </mxCell>
        <mxCell id="OZIXumOx-P3Wxb6WJyRX-31" value="&lt;div&gt;update bucket.collateral and bucket.lps&lt;/div&gt;&lt;div&gt;update lender.lps and lender.depositTime&lt;br&gt;&lt;/div&gt;" style="shape=note;whiteSpace=wrap;html=1;size=14;verticalAlign=top;align=left;spacingTop=-6;rounded=0;shadow=0;comic=0;labelBackgroundColor=none;strokeWidth=1;fontFamily=Verdana;fontSize=10;" parent="1" vertex="1">
          <mxGeometry x="1020" y="439" width="170" height="60" as="geometry" />
        </mxCell>
        <mxCell id="rVt5o7O9nqNcVIUYz_Ci-2" value="decrement poolBalances.t0Debt&lt;br&gt;decrement poolBalances.t0DebtInAuction&lt;br&gt;&lt;div&gt;decrement poolBalances.pledgedCollateral&lt;/div&gt;&lt;div&gt;update interestState.t0Debt2ToCollateral&lt;br&gt;&lt;/div&gt;" style="shape=note;whiteSpace=wrap;html=1;size=14;verticalAlign=top;align=left;spacingTop=-6;rounded=0;shadow=0;comic=0;labelBackgroundColor=none;strokeWidth=1;fontFamily=Verdana;fontSize=10;" vertex="1" parent="1">
          <mxGeometry x="-90" y="600" width="235" height="54" as="geometry" />
        </mxCell>
      </root>
    </mxGraphModel>
  </diagram>
</mxfile>
